HIERARCHY
ROOT pelvis
{
	OFFSET 0.000000 0.000000 0.000000
	CHANNELS 6 Xposition Yposition Zposition Zrotation Xrotation Yrotation
	JOINT lfemur
	{
		OFFSET 11.446000 0.000000 0.000000
		CHANNELS 3 Zrotation Xrotation Yrotation
		JOINT ltibia
		{
			OFFSET 0.000000 -42.030400 0.000000
			CHANNELS 3 Zrotation Xrotation Yrotation
			JOINT lfoot
			{
				OFFSET 0.000000 -39.930200 0.000000
				CHANNELS 3 Zrotation Xrotation Yrotation
				JOINT ltoes
				{
					OFFSET 0.000000 0.000000 11.775800
					CHANNELS 3 Zrotation Xrotation Yrotation
					End Site
					{
					    OFFSET 0.000000 0.000000 5.000000
					}
				}
			}
		}
	}
	JOINT rfemur
	{
		OFFSET -11.446000 0.000000 0.000000
		CHANNELS 3 Zrotation Xrotation Yrotation
		JOINT rtibia
		{
			OFFSET 0.000000 -42.030400 0.000000
			CHANNELS 3 Zrotation Xrotation Yrotation
			JOINT rfoot
			{
				OFFSET 0.000000 -39.930200 0.000000
				CHANNELS 3 Zrotation Xrotation Yrotation
				JOINT rtoes
				{
					OFFSET 0.000000 0.000000 11.775800
					CHANNELS 3 Zrotation Xrotation Yrotation
					End Site
					{
					    OFFSET 0.000000 0.000000 5.000000
					}
				}
			}
		}
	}
	JOINT thorax
	{
		OFFSET 0.000000 11.255600 -5.000000
		CHANNELS 3 Zrotation Xrotation Yrotation
		JOINT head
		{
			OFFSET 0.000000 43.799300 0.000000
			CHANNELS 3 Zrotation Xrotation Yrotation
			End Site
			{
			    OFFSET 0.000000 5.000000 0.000000
			}
		}
		JOINT lclavicle
		{
			OFFSET 0.000000 39.863000 0.000000
			CHANNELS 3 Zrotation Xrotation Yrotation
			JOINT lhumerus
			{
				OFFSET 17.380600 4.958300 0.000000
				CHANNELS 3 Zrotation Xrotation Yrotation
				JOINT lradius
				{
					OFFSET 0.000000 -27.561300 0.000000
					CHANNELS 3 Zrotation Xrotation Yrotation
					JOINT lhand
					{
						OFFSET 0.000000 -26.933000 0.000000
						CHANNELS 3 Zrotation Xrotation Yrotation
						End Site
						{
						    OFFSET 0.000000 -5.000000 0.000000
						}
					}
				}
			}
		}
		JOINT rclavicle
		{
			OFFSET 0.000000 39.863000 0.000000
			CHANNELS 3 Zrotation Xrotation Yrotation
			JOINT rhumerus
			{
				OFFSET -17.380600 4.958300 0.000000
				CHANNELS 3 Zrotation Xrotation Yrotation
				JOINT rradius
				{
					OFFSET 0.000000 -27.561300 0.000000
					CHANNELS 3 Zrotation Xrotation Yrotation
					JOINT rhand
					{
						OFFSET 0.000000 -26.933000 0.000000
						CHANNELS 3 Zrotation Xrotation Yrotation
						End Site
						{
						    OFFSET 0.000000 -5.000000 0.000000
						}
					}
				}
			}
		}
	}
}
MOTION
Frames:	7
Frame Time:	0.0333333
6.79737 85.3773 -206.014 1.22136 5.88794 -2.0273 -3.27952 -13.6456 -3.07537 0.164543 31.2106 -0.418767 2.30722 -9.91461 8.57141 -1.98785e-016 -5 -0 2.27231 -13.7368 5.05996 -0.181233 33.1267 0.29464 -2.82949 -11.0638 -11.5361 -5.36701e-016 -5 -1.59635e-015 -0.639466 -3.00082 -10.1587 4.38284 -2.8856 -0.492368 9.93923e-017 -3.97569e-016 -1.59028e-015 8.56389 1.33683 -9.34023 14.7563 -22.2653 6.1957 -0.0764399 -1.09849 -7.84235 9.93923e-017 -3.97569e-016 -1.59028e-015 -5.89973 -2.11314 24.9521 -15.5575 -23.2574 -6.65597 0.081947 -1.13679 8.11953 
6.74436 85.3577 -205.963 1.31585 5.90609 -1.84167 -3.35887 -13.7064 -3.01922 0.163839 31.1347 -0.416406 2.27946 -9.67235 8.58684 4.62179e-016 -5 -3.99088e-016 2.19821 -13.7548 4.94299 -0.182773 33.2542 0.294504 -2.87436 -11.1953 -11.6657 7.25573e-016 -5 -7.98176e-016 -0.685172 -2.49903 -8.63165 4.19502 -3.52435 -2.18259 -9.93923e-017 0 -0 8.75862 0.458651 -11.0273 14.5645 -22.0244 6.08703 -0.0745899 -1.08406 -7.74006 -9.93923e-017 0 -0 -5.71966 -2.28005 22.9371 -15.598 -23.3072 -6.67942 0.0875089 -1.17546 8.39697 
6.63644 85.3405 -205.884 1.43242 6.01426 -2.1257 -3.41415 -13.6184 -3.19894 0.164122 31.0535 -0.415723 2.37099 -9.99164 8.90411 -4.32352e-016 -5 -3.99088e-016 2.18328 -13.9101 5.0916 -0.183834 33.4082 0.29553 -2.85015 -11.2731 -11.4947 -6.95656e-017 -5 -7.98176e-016 -0.738592 -2.75134 -7.33124 4.09654 -3.02647 -2.93876 -9.93923e-017 3.97569e-016 -0 8.78806 0.498882 -12.2204 14.6531 -22.1356 6.13716 -0.075747 -1.09172 -7.79993 -9.93923e-017 3.97569e-016 -0 -5.65562 -1.76601 21.9094 -15.7272 -23.465 -6.7548 0.085606 -1.16211 8.30184 
6.5734 85.3121 -205.887 1.59504 6.06724 -1.82945 -3.54424 -13.6839 -3.28725 0.164894 30.9957 -0.415375 2.34072 -9.92971 8.73329 6.46095e-017 -5 -3.99088e-016 2.01691 -13.9875 4.80946 -0.185407 33.6174 0.297551 -2.88694 -11.4694 -11.4838 -4.67135e-016 -5 -7.98176e-016 -1.00628 -2.3943 -6.95644 4.01386 -3.40905 -3.77901 -9.93923e-017 0 1.59028e-015 8.93413 0.20247 -12.7263 14.6543 -22.1373 6.13781 -0.076741 -1.0994 -7.85045 -9.93923e-017 0 1.59028e-015 -5.39365 -2.03379 21.8903 -16.0314 -23.8336 -6.9328 0.0755767 -1.09163 7.79468 
6.44082 85.3094 -205.759 1.5707 6.15574 -1.95579 -3.47433 -13.7284 -3.32873 0.166684 31.0492 -0.415581 2.34849 -9.83725 8.8894 -2.6835e-016 -5 -7.98176e-016 2.1416 -13.9212 4.8853 -0.18472 33.4548 0.298774 -2.91387 -11.472 -11.6116 -4.67135e-016 -5 -7.98176e-016 -0.973911 -2.48937 -8.67642 4.18503 -2.72782 -1.68864 0 0 -0 8.77404 1.06598 -10.8067 14.9032 -22.4492 6.27935 -0.0759709 -1.09409 -7.812 0 0 -0 -5.53187 -2.19294 23.685 -15.5179 -23.2092 -6.63299 0.0948355 -1.22415 8.74696 
6.29524 85.2849 -205.727 1.47656 6.24017 -1.90339 -3.37115 -13.7325 -3.75308 0.168953 31.1746 -0.416007 2.42952 -10.0557 9.22334 -1.34175e-016 -5 -3.99088e-016 2.35608 -13.9896 4.91335 -0.185154 33.4805 0.300804 -2.91747 -11.4577 -11.6552 9.91219e-018 -5 2.39453e-015 -1.02821 -2.5113 -9.12498 4.10982 -2.41452 -1.68242 -4.41391e-032 -7.95139e-016 -3.18055e-015 8.87741 1.25179 -10.5968 14.6233 -22.0982 6.12036 -0.0529199 -0.910834 -6.4971 -4.41391e-032 -7.95139e-016 -3.18055e-015 -5.41675 -1.92811 24.2996 -15.6698 -23.3949 -6.72132 0.0874643 -1.17486 8.39358 
6.17526 85.2895 -205.681 1.54539 6.38488 -1.76163 -3.38953 -13.9576 -3.8087 0.170438 31.2478 -0.415947 2.4248 -9.99781 9.24686 1.98785e-016 -5 -0 2.42714 -14.0563 5.03545 -0.184872 33.4178 0.302368 -2.96291 -11.473 -11.9375 3.37916e-016 -5 1.59635e-015 -0.773737 -2.08447 -7.25294 3.82831 -2.78728 -3.13625 2.98177e-016 -7.95139e-016 -0 8.95394 0.0679442 -11.1664 14.6621 -22.1469 6.14222 -0.150149 -1.54155 -11.0402 2.98177e-016 -7.95139e-016 -0 -5.59533 -2.13343 21.7929 -15.5896 -23.2971 -6.67458 0.103451 -1.22636 8.76303 
